<?xml version="1.0" encoding="utf-8"?>
<!DOCTYPE svg PUBLIC "-//W3C//DTD SVG 20010904//EN" "http://www.w3.org/TR/2001/REC-SVG-20010904/DTD/svg10.dtd">
<svg version="1.0" xmlns="http://www.w3.org/2000/svg" width="484px" height="176px" viewBox="0 0 484 176" preserveAspectRatio="xMidYMid meet">
 <g fill="#1783fc">
  <path d="M126.6 171.5 c-0.3 -0.9 -0.6 -2.7 -0.6 -4 0 -1.3 -0.6 -3 -1.2 -3.7 -0.7 -0.7 -2.1 -3.1 -3.1 -5.3 -1 -2.2 -2.9 -6.1 -4.3 -8.8 -1.3 -2.6 -2.4 -5.6 -2.4 -6.6 0 -1.1 -0.5 -2.3 -1.1 -2.7 -0.6 -0.3 -2 -2.7 -3.1 -5.2 -1.8 -4 -2.2 -4.4 -3.3 -2.9 -1.1 1.5 -2.5 1.6 -9.6 1.2 -4.6 -0.4 -12.9 -0.2 -18.4 0.3 -5.5 0.5 -11 0.5 -12.2 0.1 -1.3 -0.5 -2.5 -0.4 -2.8 0.1 -0.4 0.6 -3.9 1 -8 1 -9 0 -8.6 -0.5 -18.6 20 -4.1 8.2 -8 15 -8.6 15 -0.7 0 -1.3 0.5 -1.3 1 0 1.5 -5.3 1.2 -7.5 -0.4 -1.7 -1.2 -1.6 -1.7 3.1 -8.7 2.7 -4.1 5.7 -8 6.6 -8.7 1 -0.7 1.8 -2.1 1.8 -3.1 0 -0.9 0.4 -2.1 0.9 -2.7 0.6 -0.5 3.5 -5.8 6.7 -11.9 3.1 -6 6.7 -12.4 8 -14.2 1.3 -1.7 2.4 -3.6 2.4 -4.1 0 -0.5 0.7 -1.5 1.5 -2.2 0.8 -0.7 1.2 -1.6 0.9 -2.1 -0.2 -0.5 0.5 -2.8 1.6 -5.1 1.2 -2.4 3.6 -8.2 5.5 -12.9 1.8 -4.8 3.8 -9.5 4.4 -10.5 0.6 -1.1 1.5 -3.8 2.1 -6.1 0.7 -2.8 1.7 -4.4 3.1 -4.8 1.6 -0.5 1.9 -1.2 1.4 -3.4 -0.5 -2.3 -0.1 -3.1 2.2 -4.6 1.5 -1 4 -3.1 5.5 -4.7 3.5 -3.7 5 -3.5 7 1 1 2 3.6 7.1 5.8 11.2 2.2 4.1 3.8 8 3.5 8.7 -0.2 0.7 0 1.5 0.5 1.8 0.6 0.4 1 1.3 1 2.1 0 0.9 1.1 3 2.5 4.8 1.4 1.8 2.5 4.3 2.5 5.6 0 1.3 0.9 3.3 1.9 4.4 1 1.2 4 6.2 6.6 11.1 2.6 5 6.2 11.5 8.1 14.6 1.9 3.1 3.4 6 3.4 6.4 0 0.3 0.7 1.3 1.5 2.2 0.9 0.8 1.3 2.3 1 3.4 -0.4 1.2 0.6 3.1 3.4 6 2.3 2.3 4.1 4.5 4.1 5 0 0.4 1.8 3.4 4 6.5 2.2 3.2 4 6.5 4 7.4 0 2.5 -6 8.7 -9.1 9.5 -1.9 0.5 -2.8 0.2 -3.3 -1z m-33.1 -46.1 c4.4 -0.4 8.8 -1.1 9.8 -1.6 1.6 -0.8 1.6 -1.1 0.2 -2.4 -0.8 -0.9 -1.5 -2.7 -1.5 -4.1 0 -1.6 -0.7 -2.7 -1.9 -3 -1 -0.2 -2.6 -1.9 -3.5 -3.6 -0.9 -1.8 -3 -5.4 -4.6 -8.2 -1.6 -2.7 -3 -6 -3 -7.3 0 -1.2 -0.7 -2.5 -1.5 -2.9 -0.9 -0.3 -2.9 -3.1 -4.5 -6.2 -2.5 -5.1 -5.7 -9.1 -6.3 -8 -2.3 4 -5.1 9.3 -6.7 12.9 -7.2 15.3 -9.2 19 -10 19 -0.6 0 -1 1.3 -1 2.9 0 1.5 -0.8 3.9 -1.9 5.2 -1 1.3 -1.6 2.9 -1.4 3.6 0.2 0.6 -0.1 1.4 -0.6 1.8 -2.6 1.5 -0.6 2.4 6.2 2.8 9 0.4 21.8 0.1 32.2 -0.9z"/>
  <path d="M148.6 156.3 c0.5 -8.2 0.8 -17 0.7 -19.8 -0.2 -2.7 0.3 -6.3 0.9 -7.8 0.9 -2.2 0.8 -3.1 -0.1 -3.6 -1 -0.6 -1 -4.1 -0.3 -15.7 0.5 -8.2 0.6 -17.1 0.1 -19.9 -1.2 -7.6 -1 -16.7 0.5 -19.4 0.8 -1.4 1 -3.2 0.6 -4 -2.8 -5.7 -3.2 -7.3 -2.7 -11.7 0.2 -2.7 0 -9.8 -0.5 -15.9 -0.7 -7.5 -0.7 -11.8 0 -13.5 1.3 -3.3 11.7 -8.9 13.3 -7.3 1.7 1.7 2.4 18.4 1 22.4 -0.8 2.2 -0.8 3.6 -0.1 4.3 1.1 1.1 1.4 5.9 0.3 6.9 -0.3 0.4 -0.8 8 -0.9 17 -0.3 18.5 -0.8 26.9 -1.7 28.4 -0.4 0.6 0 1.6 0.8 2.3 1.2 1 1.5 4 1.5 15 0 7.5 -0.3 14 -0.6 14.3 -0.4 0.4 -0.9 2.7 -1.1 5.2 -0.3 3.4 0 4.5 1.1 4.5 1.6 0 2.8 10.3 2.5 21 l-0.2 6.5 -5.9 2.8 c-10.4 4.8 -10.2 5.1 -9.2 -12z"/>
  <path d="M212 170.3 c-1.4 -0.2 -5.4 -1 -9 -1.8 -11.2 -2.4 -14.6 -2.6 -18.4 -1 -1.9 0.8 -4 1.5 -4.6 1.5 -2.1 0 -0.9 -5.3 2 -8.7 2.5 -2.9 3 -4.2 3 -8.8 0 -4.2 0.5 -5.9 2.1 -7.4 1.9 -1.8 1.9 -2 0.4 -2.9 -1.5 -0.8 -1.7 -2.4 -1.6 -10.3 0.1 -5.3 0.7 -9.6 1.3 -10 0.7 -0.5 0.7 -0.8 0 -1 -1.6 -0.6 -2.8 -21 -1.4 -23.5 0.6 -1.2 0.7 -2.6 0.2 -3.5 -0.8 -1.3 -1 -10.9 -1 -42.3 0 -2.2 0.5 -4.5 1.1 -5.2 0.8 -1 0.7 -1.8 -0.5 -2.9 -1.9 -1.9 -1.9 -2.3 -1.6 -9.1 0.1 -2.9 -0.3 -5.5 -0.9 -5.8 -3.4 -2.1 0.5 -6.7 7.9 -9.3 6.4 -2.3 9.7 -1.6 9.1 2 -0.1 0.8 -0.8 10.4 -1.6 24.2 -0.4 7.5 -0.4 7.5 0 22 0.4 11.3 0.3 12.1 -1.7 13.6 -2.1 1.7 -2.1 2 0.7 6.9 1.8 3 1.9 8 0.3 11.5 -1.6 3.4 0.3 5.6 3.2 3.7 1.1 -0.6 3 -1.2 4.3 -1.2 1.3 0 4.8 -0.8 7.8 -1.9 4.1 -1.4 5.8 -1.6 7.2 -0.7 1.2 0.7 2 0.8 2.5 0.1 0.8 -1.2 7.7 -1.4 8.8 -0.2 0.4 0.4 2.7 0.7 5.1 0.7 5.3 0 10.8 2.1 12.2 4.8 0.7 1.4 1.7 1.8 3.1 1.5 2.1 -0.6 7 3 7 5.1 0 0.5 0.8 1.9 1.9 3 1.7 2 3.5 7.2 4.8 13.9 0.6 3.3 -2.2 11.3 -4.2 12.1 -0.8 0.3 -1.5 1.6 -1.5 3 0 5.3 -1.3 7 -13 17.5 -9.6 8.6 -22.4 12.4 -35 10.4z m17.4 -8.2 c8.4 -2.3 14.2 -7.5 18.2 -16.4 2.3 -5.2 2.7 -7.3 2.5 -14.4 l-0.1 -8.3 -4.8 -4.8 c-7.4 -7.6 -12.7 -10.2 -23.7 -11.4 l-9.3 -1.1 -6.9 3.8 c-3.7 2.1 -6.9 3.9 -7.1 4.1 -0.2 0.1 -0.3 5.8 -0.3 12.6 0.1 25.8 0 30.3 -0.5 32 -0.4 1.3 1 1.9 8.8 3.2 8.6 1.4 12.7 2.1 15.3 2.5 0.6 0 4.1 -0.8 7.9 -1.8z"/>
  <path d="M297.4 169.7 c-1.1 -0.6 -3.4 -1 -5.2 -0.8 -2.3 0.2 -4.3 -0.5 -6.7 -2.3 -3.4 -2.6 -6.1 -8.5 -5.1 -11.1 0.3 -0.8 0 -1.5 -0.5 -1.5 -0.8 0 -0.9 -2.2 -0.6 -6.7 0.8 -9.1 1 -25.4 0.4 -27.3 -0.3 -0.8 -0.8 -5.5 -1 -10.3 l-0.5 -8.9 5.2 -2.4 c2.8 -1.3 6 -2.4 7.2 -2.4 2.9 0 4.7 4.1 3.3 7.7 -0.5 1.4 -0.9 4.5 -0.9 6.7 0.1 2.3 -0.2 6.5 -0.6 9.3 -0.4 3.5 -0.3 5.7 0.5 6.7 0.8 0.9 0.8 2.1 0.2 3.9 -1.3 3.3 -1.5 12.7 -0.6 20 0.9 7 2.1 7.9 11.9 10.2 6.1 1.4 7.3 1.4 11.2 0.1 2.3 -0.8 5.3 -1.2 6.4 -0.9 1.7 0.4 3.2 -0.6 6.7 -4.3 2.5 -2.7 5.1 -5.8 5.8 -6.9 1.3 -2 2.3 -11.2 1.4 -13.1 -0.2 -0.5 -0.4 -7.1 -0.4 -14.6 0 -7.6 -0.3 -13.8 -0.7 -13.8 -0.5 0 -0.8 -1 -0.8 -2.2 0 -5.2 1 -6.3 6.8 -8 3.1 -0.9 6.1 -1.3 6.6 -0.8 0.9 0.9 0.9 17.1 0 27.3 -0.5 4.7 -1.1 6.7 -2 6.7 -1.9 0 -1.8 1.6 0.1 2.4 1.1 0.4 1.5 2.3 1.5 7.9 0 9.3 1.7 18.7 3.8 21 1.6 1.8 1.5 2 -1.1 4.3 -1.5 1.3 -4.6 2.9 -6.8 3.6 -3.7 1.1 -4.3 1 -5.5 -0.7 -0.8 -1 -1.4 -3 -1.4 -4.3 0 -2.8 -1.3 -2.5 -10 1.8 -8.6 4.2 -24.1 6.2 -28.6 3.7z"/>
  <path d="M371.1 157.8 c0.1 -7.3 0.6 -14.1 1.1 -15.2 0.7 -1.3 0.6 -2.1 -0.2 -2.6 -0.8 -0.5 -1.1 -4 -0.9 -11.6 0.2 -11.5 -0.8 -19.4 -3.1 -23.1 -1.3 -2 -1.2 -2.5 0.8 -4.6 1.3 -1.4 4.1 -3.3 6.4 -4.3 l4 -1.8 2 2.4 c1.4 1.7 1.9 3.5 1.6 6.2 -0.2 2.1 -0.2 3.8 0 3.8 0.1 0 2.4 -1.7 5.1 -3.8 2.7 -2.2 7.4 -4.6 11 -5.7 6 -1.8 6.4 -1.8 7.3 -0.1 0.9 1.6 1.1 1.6 2.2 0.1 0.7 -1 2.8 -1.7 5.5 -1.8 3.5 -0.1 4.7 0.3 6.2 2.2 1.1 1.3 1.9 3.2 1.9 4.2 0 2 1.5 2.6 2.5 1 0.3 -0.5 2.7 -2.1 5.3 -3.6 4.1 -2.4 5.9 -2.7 14.7 -2.8 11.4 -0.2 15.8 1.2 16.4 5.3 0.1 1.4 0.7 2.8 1.3 3.1 1.3 0.8 2.4 22.4 1.1 23.2 -1.2 0.8 -0.6 29 0.7 33 0.8 2.4 0.6 2.9 -1.8 4.4 -1.5 0.9 -3.9 2.4 -5.4 3.4 -1.5 1.1 -3.9 1.9 -5.3 1.9 l-2.5 0 0.6 -12.2 c0.3 -6.8 1 -13.8 1.4 -15.5 0.5 -2 0.4 -4.8 -0.2 -7 -0.6 -2.1 -0.7 -5.8 -0.3 -8.3 0.9 -6.2 0.8 -6.8 -0.7 -12.9 -1.1 -4.5 -1.9 -5.7 -4.8 -7.3 -4 -2.1 -8.8 -1.8 -15.7 1.2 -6.5 2.9 -7.2 5.5 -5.8 22.7 0.5 6.1 0.4 9.7 -0.3 10.5 -0.7 0.9 -0.6 3.8 0.4 9.8 0.7 4.7 1.4 9.5 1.4 10.7 0 2.6 -5.3 6.1 -10.4 7 l-3.4 0.5 0 -10.1 c0.1 -6.9 0.5 -10.4 1.4 -11.2 1 -0.8 1 -1.7 -0.2 -4.4 -1.9 -4.5 -1.8 -12 0.2 -15 1.3 -2 1.3 -2.4 0.1 -3.2 -1 -0.5 -1.6 -3.1 -1.9 -8.2 -0.4 -7.9 -2 -10.4 -5.8 -9.4 -1.2 0.3 -2 0 -2 -0.7 0 -1.3 -1.2 -1.1 -10.6 1.6 -5.3 1.5 -6.5 2.9 -8.5 9.8 -1.1 3.8 -1.3 23.1 -0.4 36.8 l0.8 10.6 -4.1 2.1 c-2.3 1.2 -5.3 2.1 -6.7 2.1 l-2.5 0 0.1 -13.2z"/>
 </g>
</svg>