<?xml version="1.0" encoding="utf-8"?>
<!DOCTYPE svg PUBLIC "-//W3C//DTD SVG 20010904//EN" "http://www.w3.org/TR/2001/REC-SVG-20010904/DTD/svg10.dtd">
<svg version="1.0" xmlns="http://www.w3.org/2000/svg" width="246px" height="80px" viewBox="0 0 246 80" preserveAspectRatio="xMidYMid meet">
 <g fill="#ffffff">
  <path d="M65 74.8 c0 -0.6 -1.9 -5.1 -4.2 -9.9 -3.8 -8.1 -4.3 -8.8 -6.7 -8.4 -1.4 0.2 -7.8 0.7 -14.1 1 -11.1 0.5 -11.6 0.6 -13.7 3.2 -1.3 1.6 -3.3 5.2 -4.5 8 -2 4.8 -5 7.5 -6.5 5.9 -0.4 -0.3 1 -3 2.9 -5.8 2 -2.9 4.6 -7.3 5.8 -9.8 1.2 -2.5 2.8 -5.2 3.5 -6 0.7 -0.8 3.1 -6.2 5.5 -12 2.3 -5.8 4.6 -10.6 5.1 -10.8 0.5 -0.2 0.9 -1 0.9 -1.8 0 -0.8 1 -2.4 2.1 -3.5 l2.2 -2.2 1.8 2.4 c1 1.3 2.6 4.5 3.5 7.1 0.8 2.6 2 5 2.5 5.3 0.5 0.4 0.9 1.3 0.9 2.2 0 0.9 0.6 2.4 1.4 3.2 0.7 0.9 3.3 5.4 5.7 10.1 2.5 4.7 5.9 10.6 7.7 13.2 1.7 2.6 3.2 5 3.2 5.4 0 0.6 -3.9 4.4 -4.7 4.4 -0.1 0 -0.3 -0.5 -0.3 -1.2z m-15.6 -20.4 c5.6 -0.8 5.9 -2.3 1.5 -8.4 -1.7 -2.4 -3.2 -4.8 -3.3 -5.4 -0.4 -2.4 -5.8 -9.8 -6.6 -9 -1 1.1 -8.6 16 -9.9 19.5 -0.5 1.5 -0.7 3 -0.4 3.3 0.8 0.8 12.8 0.8 18.7 0z"/>
  <path d="M75.6 62.3 c0.5 -19.8 0.4 -35.9 -0.2 -46.5 l-0.5 -9.7 3 -1.5 3 -1.6 -0.1 28.8 c0 15.8 0.3 31.2 0.7 34.4 0.8 5.6 0.7 5.6 -2.3 7.2 -1.7 0.9 -3.3 1.6 -3.5 1.6 -0.2 0 -0.3 -5.7 -0.1 -12.7z"/>
  <path d="M99.5 73.5 c-3.8 -0.7 -6.7 -0.8 -7.8 -0.3 -2.6 1.3 -3.2 0.3 -1.3 -2.4 0.9 -1.2 1.6 -3.5 1.6 -4.9 0 -1.5 0.6 -3 1.3 -3.2 0.8 -0.4 0.9 -0.8 0.1 -1.4 -0.8 -0.5 -1.2 -8.3 -1.3 -23.8 0 -12.6 -0.2 -24.9 -0.5 -27.2 -0.3 -4.4 0.4 -5.6 4.1 -6.7 2.1 -0.7 2.2 -0.6 2.1 13.6 -0.1 8.6 -0.5 14.6 -1.2 15 -0.7 0.4 -0.6 1.5 0.2 3.2 0.6 1.4 0.9 4 0.5 5.6 -0.6 3 -0.5 3.1 2.3 2.4 1.6 -0.4 3.8 -1 4.9 -1.4 1.1 -0.3 3.4 -0.6 5 -0.5 1.7 0.1 4.4 0.3 6.2 0.3 1.7 0.1 3.8 0.9 4.7 1.7 0.8 0.8 2.1 1.5 2.9 1.5 3.9 0 7 10.4 4.3 14.5 -0.9 1.3 -1.6 3.1 -1.6 3.9 0 2.2 -9 9.2 -13.5 10.5 -4.6 1.3 -5 1.2 -13 -0.4z m14.8 -2.4 c1.4 -0.6 3.8 -2.7 5.4 -4.7 2.3 -3.1 2.8 -4.7 2.7 -9.1 0 -4.7 -0.4 -5.6 -3.4 -8.3 -1.9 -1.7 -4.4 -3.3 -5.5 -3.5 -7.5 -1.4 -8.8 -1.4 -12.6 0.5 l-3.9 2 0 11.5 0 11.4 3.3 0.4 c6.3 0.8 11.6 0.7 14 -0.2z"/>
  <path d="M142.2 74 c-1.9 -0.5 -3.9 -1.3 -4.5 -1.9 -0.8 -0.7 -1.4 -6.5 -1.7 -14.9 -0.5 -14.4 -0.1 -16.2 4 -16.2 1.5 0 1.7 1.4 1.2 13.3 -0.5 15.7 -0.3 16.1 9.1 16.4 5.4 0.2 6.2 -0.1 8.9 -2.8 3 -2.9 3 -3.1 3.2 -14.6 0.1 -11 0.2 -11.6 2.4 -12.4 2.2 -0.8 2.2 -0.7 2.2 7.1 0 5.3 -0.4 8 -1.1 8 -0.8 0 -0.8 0.4 -0.1 1.3 0.6 0.7 1.1 3.4 1 5.8 0 2.5 0.5 5.5 1.1 6.7 0.9 1.8 0.8 2.3 -0.8 3.2 -2.9 1.5 -3.8 1.3 -4.4 -1.1 l-0.5 -2 -4 2 c-4.6 2.3 -11.1 3.2 -16 2.1z"/>
  <path d="M179.2 61.3 c0.1 -9.2 -0.2 -14.5 -1 -16 -1.1 -2 -0.9 -2.4 1.4 -3.9 2.2 -1.5 2.7 -1.5 3.5 -0.3 0.5 0.8 0.9 2 0.9 2.7 0 1.6 0.3 1.6 4.4 -0.9 1.9 -1.1 4.3 -1.9 5.3 -1.8 1 0.1 2.7 -0.2 3.7 -0.6 1.4 -0.6 2.4 -0.3 3.7 1.4 1.7 2.1 2 2.1 4.8 0.7 1.6 -0.9 5 -1.7 7.6 -1.8 7.4 -0.2 7.8 0.7 8 17.1 0.1 13.7 0.1 14.2 -2.2 15.6 -1.2 0.8 -2.5 1.5 -2.8 1.5 -0.3 0 -0.4 -6.1 -0.3 -13.6 0.2 -13 0.1 -13.7 -2 -15.4 -1.7 -1.4 -2.9 -1.6 -5.8 -1 -2 0.5 -4.1 1.3 -4.7 1.9 -0.6 0.6 -1 6 -0.9 13.3 0.1 12.2 -0.3 13.7 -3.5 13.8 -0.8 0 -1.1 -3.6 -1.1 -13 0 -8.6 -0.3 -13.5 -1.1 -14.4 -1.9 -2.2 -9.1 -1.3 -11.3 1.4 -1.8 2.2 -2.1 5.4 -1.8 18.7 0.1 5.2 -0.2 6.3 -1.9 7.2 -1.1 0.6 -2.2 1.1 -2.5 1.1 -0.3 0 -0.5 -6.2 -0.4 -13.7z"/>
 </g>
</svg>