<?xml version="1.0" encoding="utf-8"?>
<!DOCTYPE svg PUBLIC "-//W3C//DTD SVG 20010904//EN" "http://www.w3.org/TR/2001/REC-SVG-20010904/DTD/svg10.dtd">
<svg version="1.0" xmlns="http://www.w3.org/2000/svg" width="90px" height="90px" viewBox="0 0 120 90" preserveAspectRatio="xMidYMid meet">
 <g fill="#186bf6">
  <path d="M38.6 84.4 l-0.6 -1.5 1 -2 1.1 -1.9 1.8 0 1.9 0 1.2 1.5 1.2 1.4 -0.7 2.1 -0.6 2 -2.9 0 -2.8 0 -0.6 -1.6z"/>
  <path d="M62.1 84.1 l-1 -1.8 1.2 -1.8 1.3 -1.7 2.4 0.4 2.3 0.3 1 1.7 1.1 1.6 -1.3 1.6 -1.3 1.6 -2.4 0 -2.3 0 -1 -1.9z"/>
  <path d="M83.7 83.6 l-1.6 -2.4 2 -2.6 2 -2.6 2.4 0 2.4 0 1.5 2.7 1.4 2.7 -1.1 2.3 -1 2.3 -3.2 0 -3.3 0 -1.5 -2.4z"/>
  <path d="M284.3 77 l0 -4.5 0.4 2.3 c0.2 1.2 0.2 3.2 0 4.5 l-0.4 2.2 0 -4.5z"/>
  <path d="M29 65.9 l-1.3 -3.1 1.6 -2.7 1.6 -2.6 3.5 -0.3 3.6 -0.3 1.9 3.2 2 3.3 -1.7 2.8 -1.6 2.8 -4.2 0 -4.2 0 -1.2 -3.1z"/>
  <path d="M90.9 66.1 l-1.7 -2.9 1.9 -3.1 1.9 -3.1 3.4 0 3.4 0 2 3.1 2 3.2 -1.7 2.8 -1.6 2.9 -4 0 -4 0 -1.6 -2.9z"/>
  <path d="M51.9 65.9 l-1.1 -2.2 1.1 -2.3 1.1 -2.4 2.9 0 3 0 1.1 1.9 1 2 -1.2 2.5 -1.1 2.6 -2.8 0 -2.8 0 -1.2 -2.1z"/>
  <path d="M72.2 65.4 l-1.2 -2.5 1.1 -2 1 -2 3.1 0.3 3.1 0.3 1 1.7 1.1 1.6 -1.2 2.6 -1.2 2.6 -2.8 0 -2.9 0 -1.1 -2.6z"/>
  <path d="M284.2 63 l0 -3.5 0.5 1.8 c0.2 0.9 0.2 2.5 0 3.5 l-0.5 1.7 0 -3.5z"/>
  <path d="M290.2 63 l0 -3.5 0.5 1.8 c0.2 0.9 0.2 2.5 0 3.5 l-0.5 1.7 0 -3.5z"/>
  <path d="M241.2 62 l0 -3.5 0.5 1.8 c0.2 0.9 0.2 2.5 0 3.5 l-0.5 1.7 0 -3.5z"/>
  <path d="M181.3 51.5 l0 -4 0.4 2.3 c0.2 1.2 0.2 3 0 4 l-0.5 1.7 0.1 -4z"/>
  <path d="M18.1 47.5 l-2.1 -3.6 2.5 -3.9 2.5 -4 4 0 4 0 2.4 3.8 2.4 3.7 -2.1 3.8 -2.1 3.7 -4.7 0 -4.7 0 -2.1 -3.5z"/>
  <path d="M99.5 47.4 l-1.9 -3.6 2.1 -3.7 2.1 -3.6 4 -0.3 4.1 -0.3 2.6 3.9 2.6 3.9 -2.2 3.7 -2.1 3.6 -4.7 0 -4.6 0 -2 -3.6z"/>
  <path d="M40 46.8 l-1.9 -3.2 1.7 -3.1 1.8 -3 3.6 -0.3 3.7 -0.3 1.7 3.2 1.6 3.2 -1.6 3.4 -1.6 3.3 -3.5 0 -3.5 0 -2 -3.2z"/>
  <path d="M80.5 46.6 l-1.8 -3.3 2.2 -3.2 2.2 -3.1 2.9 0 2.9 0 2.2 3.1 2.2 3.2 -1.8 3.3 -1.8 3.4 -3.7 0 -3.7 0 -1.8 -3.4z"/>
  <path d="M61 46.4 l-1.4 -2.6 1.5 -2.6 1.5 -2.7 2.4 -0.3 2.4 -0.4 2.3 2.8 2.2 2.8 -1.7 2.8 -1.6 2.8 -3.1 0 -3.2 0 -1.3 -2.6z"/>
  <path d="M29 30.8 c-2.4 -4 -2.5 -4.8 -0.2 -8.7 l1.7 -3.1 4.7 0 4.6 0 2.1 3.6 2.1 3.5 -2.3 3.9 -2.2 4 -4.3 0 -4.2 0 -2 -3.2z"/>
  <path d="M89.6 30.4 l-2.5 -3.8 2.1 -3.8 2.2 -3.8 4.6 0 4.5 0 2 3.6 1.9 3.6 -1.9 3.6 -2 3.7 -4.2 0.3 -4.2 0.3 -2.5 -3.7z"/>
  <path d="M50.7 29 l-1.8 -3 2 -2.8 2 -2.8 3.4 0.4 3.3 0.4 1.6 2.6 1.6 2.6 -2 2.8 -1.9 2.8 -3.3 0 -3.2 0 -1.7 -3z"/>
  <path d="M71 28.9 l-1.3 -3 1.3 -2.4 1.2 -2.3 3.5 -0.4 3.4 -0.4 2 2.8 2 2.7 -1.6 3.1 -1.6 3 -3.8 0 -3.9 0 -1.2 -3.1z"/>
  <path d="M38.5 12.1 l-1.7 -4 2.2 -3.5 2.2 -3.6 4.1 0 4.2 0 2.2 4 2.3 3.9 -2.1 3.5 -2.1 3.6 -4.7 0 -4.8 0 -1.8 -3.9z"/>
  <path d="M59 12.8 c-2.5 -4.1 -2.5 -3.9 0.1 -8.2 l2.1 -3.6 4.3 0 4.3 0 2.2 3.7 2.1 3.7 -1.7 3.8 -1.7 3.8 -4.9 0 -4.8 0 -2 -3.2z"/>
  <path d="M79.1 12.4 l-2.1 -3.5 2.3 -3.9 2.2 -4 4.2 0 4.3 0 2.4 3.8 2.4 3.7 -2.1 3.8 -2.1 3.7 -4.7 0 -4.7 0 -2.1 -3.6z"/>
 </g>
</svg>