<?xml version="1.0" encoding="utf-8"?>
<!DOCTYPE svg PUBLIC "-//W3C//DTD SVG 20010904//EN" "http://www.w3.org/TR/2001/REC-SVG-20010904/DTD/svg10.dtd">
<svg version="1.0" xmlns="http://www.w3.org/2000/svg" width="342px" height="90px" viewBox="0 0 342 90" preserveAspectRatio="xMidYMid meet">
 <g fill="#ffffff">
  <path d="M120.5 81 l-0.6 -1 2.2 -3.3 c1.3 -1.7 2.6 -3.4 2.9 -3.7 0.3 -0.3 1.2 -1.8 2 -3.5 0.8 -1.6 3.1 -5.9 5.2 -9.4 2.1 -3.4 3.8 -6.7 3.8 -7.1 0 -0.4 0.9 -2.9 2.1 -5.6 1.1 -2.7 2.4 -5.8 2.8 -6.9 2.4 -5.8 3.8 -8.2 6 -10.3 l2.5 -2.3 1.4 1.8 c0.8 1 3 5.2 4.8 9.3 1.9 4.1 4.3 9.1 5.3 11 1 1.9 3.7 7 6 11.3 2.3 4.3 5.5 9.6 7.1 11.8 l2.9 4.1 -1.7 2.4 -1.7 2.3 -1.7 0.1 -1.8 0 0 -1.4 c0 -0.7 -1.7 -5 -3.7 -9.3 l-3.8 -8 -8.5 0.4 c-11 0.4 -20.1 1.1 -20.5 1.5 -0.2 0.2 -2 3.7 -4.1 7.8 -2 4.1 -4.2 7.8 -4.8 8.2 -1.6 1.1 -3.4 1 -4.1 -0.2z m37.2 -21.6 l2.2 -0.6 -0.7 -1.6 c-0.3 -1 -1.8 -3.5 -3.4 -5.6 -1.5 -2.1 -2.8 -4.2 -2.8 -4.7 0 -0.4 -1.2 -2.6 -2.7 -4.9 l-2.7 -4.1 -1.8 2.3 c-1 1.3 -1.8 2.7 -1.8 3.1 0 0.5 -1.6 4.1 -3.5 8 -1.9 3.9 -3.5 7.4 -3.5 7.9 l0 0.8 9.3 0 c5 0 10.2 -0.3 11.4 -0.6z"/>
  <path d="M206 80.4 l-6.5 -1.3 -2.2 0.6 -2.3 0.5 0 -1.1 c0 -0.7 0.7 -2.2 1.5 -3.4 l1.5 -2.3 0.1 -3.5 c0.3 -7 -1.1 -54.7 -1.6 -56.1 l-0.6 -1.6 2.3 -1.6 2.2 -1.6 2.2 0 2.2 0 -0.5 13.7 c-0.2 7.6 -0.5 16.6 -0.6 20.1 l-0.2 6.3 2 -0.6 c1.1 -0.4 5.4 -0.9 9.5 -1.2 l7.6 -0.5 4.6 2.1 4.6 2.1 2.1 4.3 c2.6 5.4 2.6 5.3 -0.3 11.8 l-2.4 5.4 -4.1 3.3 c-4 3.2 -7 4.6 -12.1 5.5 l-2.5 0.4 -6.5 -1.3z m15.8 -5 c1.3 -0.8 3.2 -2.9 4.2 -4.7 l2 -3.2 0 -4.6 0 -4.6 -2.3 -2.1 c-1.2 -1.1 -3.9 -2.8 -5.9 -3.7 l-3.7 -1.5 -3.1 0 -3.1 0 -2.9 1.5 -3 1.6 -0.1 4.7 c-0.1 2.6 -0.2 7.4 -0.3 10.7 l-0.1 6 4 1.2 4 1.2 4 -0.5 4 -0.5 2.3 -1.5z"/>
  <path d="M180.6 79.4 l-0.6 -1.6 0.6 -1 0.6 -0.9 0 -25.2 0 -25.3 -0.7 -6.6 -0.7 -6.6 3.1 -1.7 3.2 -1.6 1 0.7 1.1 0.6 -0.7 12.7 c-0.8 15 -0.8 28.4 0.1 40.6 0.3 5 0.5 10.3 0.5 11.9 l-0.2 2.9 -1.7 1.3 c-0.9 0.7 -2.4 1.4 -3.3 1.4 l-1.7 0 -0.6 -1.6z"/>
  <path d="M247 80.1 l-3.5 -0.6 -1.1 -3.5 -1.1 -3.4 -0.1 -12.4 -0.1 -12.3 2.4 -1.1 2.4 -1.1 1.6 0.7 1.6 0.6 -0.6 3.2 c-0.6 3.1 -0.9 14.8 -0.6 21.1 l0.1 2.8 3.5 1.5 3.5 1.4 4 -0.6 4 -0.7 2.7 -3.1 2.6 -3.1 -0.7 -11.1 -0.6 -11.2 2.3 -0.6 c1.2 -0.3 2.8 -0.6 3.6 -0.6 l1.3 0 -0.6 7.8 c-0.8 10.5 -0.7 14.9 0.5 20.1 l1 4.4 -0.8 0.7 c-0.4 0.4 -1.8 1.1 -3.1 1.5 l-2.3 0.7 -0.6 -2 -0.5 -2 -4.5 1.9 -4.5 1.9 -4.1 -0.1 c-2.3 -0.1 -5.8 -0.4 -7.7 -0.8z"/>
  <path d="M284.4 69.3 l0.4 -11.8 -1 -4.5 -0.9 -4.4 1.7 -1.3 c1 -0.7 2.6 -1.3 3.6 -1.3 l1.8 0 0 2.6 0 2.5 3.1 -2.2 3.1 -2.2 5.3 -0.4 5.4 -0.4 1.2 2 1.3 1.9 2.4 -1.9 2.5 -1.9 4.6 0 4.7 0 2 1.4 1.9 1.4 0.5 14.7 0.5 14.6 -2.2 1.5 c-1.2 0.7 -2.9 1.4 -3.7 1.4 l-1.4 0 0.5 -10 0.5 -10.1 -0.7 -4.4 -0.6 -4.5 -2.6 -0.6 -2.5 -0.7 -3.5 1.7 -3.4 1.6 0.5 12.4 0.5 12.3 -2.6 1.2 -2.6 1.2 -0.6 -0.6 -0.6 -0.7 -0.1 -12.8 -0.1 -12.8 -0.7 -1.1 -0.7 -1.1 -2.7 0 c-1.5 0 -3.7 0.3 -4.9 0.6 l-2.2 0.6 -0.7 2.2 -0.7 2.1 0.1 10.5 0 10.5 -1 1.3 -1 1.2 -2.4 0 -2.3 0 0.3 -11.7z"/>
 </g>
 <g fill="#186bf6">
  <path d="M38.6 84.4 l-0.6 -1.5 1 -2 1.1 -1.9 1.8 0 1.9 0 1.2 1.5 1.2 1.4 -0.7 2.1 -0.6 2 -2.9 0 -2.8 0 -0.6 -1.6z"/>
  <path d="M62.1 84.1 l-1 -1.8 1.2 -1.8 1.3 -1.7 2.4 0.4 2.3 0.3 1 1.7 1.1 1.6 -1.3 1.6 -1.3 1.6 -2.4 0 -2.3 0 -1 -1.9z"/>
  <path d="M83.7 83.6 l-1.6 -2.4 2 -2.6 2 -2.6 2.4 0 2.4 0 1.5 2.7 1.4 2.7 -1.1 2.3 -1 2.3 -3.2 0 -3.3 0 -1.5 -2.4z"/>
  <path d="M284.3 77 l0 -4.5 0.4 2.3 c0.2 1.2 0.2 3.2 0 4.5 l-0.4 2.2 0 -4.5z"/>
  <path d="M29 65.9 l-1.3 -3.1 1.6 -2.7 1.6 -2.6 3.5 -0.3 3.6 -0.3 1.9 3.2 2 3.3 -1.7 2.8 -1.6 2.8 -4.2 0 -4.2 0 -1.2 -3.1z"/>
  <path d="M90.9 66.1 l-1.7 -2.9 1.9 -3.1 1.9 -3.1 3.4 0 3.4 0 2 3.1 2 3.2 -1.7 2.8 -1.6 2.9 -4 0 -4 0 -1.6 -2.9z"/>
  <path d="M51.9 65.9 l-1.1 -2.2 1.1 -2.3 1.1 -2.4 2.9 0 3 0 1.1 1.9 1 2 -1.2 2.5 -1.1 2.6 -2.8 0 -2.8 0 -1.2 -2.1z"/>
  <path d="M72.2 65.4 l-1.2 -2.5 1.1 -2 1 -2 3.1 0.3 3.1 0.3 1 1.7 1.1 1.6 -1.2 2.6 -1.2 2.6 -2.8 0 -2.9 0 -1.1 -2.6z"/>
  <path d="M284.2 63 l0 -3.5 0.5 1.8 c0.2 0.9 0.2 2.5 0 3.5 l-0.5 1.7 0 -3.5z"/>
  <path d="M290.2 63 l0 -3.5 0.5 1.8 c0.2 0.9 0.2 2.5 0 3.5 l-0.5 1.7 0 -3.5z"/>
  <path d="M241.2 62 l0 -3.5 0.5 1.8 c0.2 0.9 0.2 2.5 0 3.5 l-0.5 1.7 0 -3.5z"/>
  <path d="M181.3 51.5 l0 -4 0.4 2.3 c0.2 1.2 0.2 3 0 4 l-0.5 1.7 0.1 -4z"/>
  <path d="M18.1 47.5 l-2.1 -3.6 2.5 -3.9 2.5 -4 4 0 4 0 2.4 3.8 2.4 3.7 -2.1 3.8 -2.1 3.7 -4.7 0 -4.7 0 -2.1 -3.5z"/>
  <path d="M99.5 47.4 l-1.9 -3.6 2.1 -3.7 2.1 -3.6 4 -0.3 4.1 -0.3 2.6 3.9 2.6 3.9 -2.2 3.7 -2.1 3.6 -4.7 0 -4.6 0 -2 -3.6z"/>
  <path d="M40 46.8 l-1.9 -3.2 1.7 -3.1 1.8 -3 3.6 -0.3 3.7 -0.3 1.7 3.2 1.6 3.2 -1.6 3.4 -1.6 3.3 -3.5 0 -3.5 0 -2 -3.2z"/>
  <path d="M80.5 46.6 l-1.8 -3.3 2.2 -3.2 2.2 -3.1 2.9 0 2.9 0 2.2 3.1 2.2 3.2 -1.8 3.3 -1.8 3.4 -3.7 0 -3.7 0 -1.8 -3.4z"/>
  <path d="M61 46.4 l-1.4 -2.6 1.5 -2.6 1.5 -2.7 2.4 -0.3 2.4 -0.4 2.3 2.8 2.2 2.8 -1.7 2.8 -1.6 2.8 -3.1 0 -3.2 0 -1.3 -2.6z"/>
  <path d="M29 30.8 c-2.4 -4 -2.5 -4.8 -0.2 -8.7 l1.7 -3.1 4.7 0 4.6 0 2.1 3.6 2.1 3.5 -2.3 3.9 -2.2 4 -4.3 0 -4.2 0 -2 -3.2z"/>
  <path d="M89.6 30.4 l-2.5 -3.8 2.1 -3.8 2.2 -3.8 4.6 0 4.5 0 2 3.6 1.9 3.6 -1.9 3.6 -2 3.7 -4.2 0.3 -4.2 0.3 -2.5 -3.7z"/>
  <path d="M50.7 29 l-1.8 -3 2 -2.8 2 -2.8 3.4 0.4 3.3 0.4 1.6 2.6 1.6 2.6 -2 2.8 -1.9 2.8 -3.3 0 -3.2 0 -1.7 -3z"/>
  <path d="M71 28.9 l-1.3 -3 1.3 -2.4 1.2 -2.3 3.5 -0.4 3.4 -0.4 2 2.8 2 2.7 -1.6 3.1 -1.6 3 -3.8 0 -3.9 0 -1.2 -3.1z"/>
  <path d="M38.5 12.1 l-1.7 -4 2.2 -3.5 2.2 -3.6 4.1 0 4.2 0 2.2 4 2.3 3.9 -2.1 3.5 -2.1 3.6 -4.7 0 -4.8 0 -1.8 -3.9z"/>
  <path d="M59 12.8 c-2.5 -4.1 -2.5 -3.9 0.1 -8.2 l2.1 -3.6 4.3 0 4.3 0 2.2 3.7 2.1 3.7 -1.7 3.8 -1.7 3.8 -4.9 0 -4.8 0 -2 -3.2z"/>
  <path d="M79.1 12.4 l-2.1 -3.5 2.3 -3.9 2.2 -4 4.2 0 4.3 0 2.4 3.8 2.4 3.7 -2.1 3.8 -2.1 3.7 -4.7 0 -4.7 0 -2.1 -3.6z"/>
 </g>
</svg>